<svg width="24" height="24" viewBox="0 0 24 24" fill="none" xmlns="http://www.w3.org/2000/svg">
<path d="M16.5 19.25C16.5 18.388 16.8424 17.5614 17.4519 16.9519C18.0614 16.3424 18.888 16 19.75 16C20.612 16 21.4386 16.3424 22.0481 16.9519C22.6576 17.5614 23 18.388 23 19.25C23 20.112 22.6576 20.9386 22.0481 21.5481C21.4386 22.1576 20.612 22.5 19.75 22.5C18.888 22.5 18.0614 22.1576 17.4519 21.5481C16.8424 20.9386 16.5 20.112 16.5 19.25ZM19.75 17.5C19.5201 17.5001 19.2925 17.5454 19.0802 17.6334C18.8678 17.7215 18.6749 17.8505 18.5124 18.0131C18.3499 18.1757 18.221 18.3687 18.1331 18.5811C18.0451 18.7935 17.9999 19.0211 18 19.251C18.0001 19.4809 18.0454 19.7085 18.1334 19.9208C18.2215 20.1332 18.3505 20.3261 18.5131 20.4886C18.6757 20.6511 18.8687 20.78 19.0811 20.8679C19.2935 20.9559 19.5211 21.0011 19.751 21.001C20.2153 21.0009 20.6605 20.8163 20.9886 20.4879C21.3168 20.1596 21.5011 19.7143 21.501 19.25C21.5009 18.7857 21.3163 18.3405 20.9879 18.0124C20.6596 17.6842 20.2143 17.4999 19.75 17.5Z" fill="#454545"/>
<path d="M13.905 1.72C14.0455 1.86063 14.1243 2.05125 14.1243 2.25C14.1243 2.44875 14.0455 2.63937 13.905 2.78L12.685 4H16.75C17.7446 4 18.6984 4.39509 19.4017 5.09835C20.1049 5.80161 20.5 6.75544 20.5 7.75V16.5C20.5 16.6989 20.421 16.8897 20.2803 17.0303C20.1397 17.171 19.9489 17.25 19.75 17.25C19.5511 17.25 19.3603 17.171 19.2197 17.0303C19.079 16.8897 19 16.6989 19 16.5V7.75C19 7.45453 18.9418 7.16194 18.8287 6.88896C18.7157 6.61598 18.5499 6.36794 18.341 6.15901C18.1321 5.95008 17.884 5.78434 17.611 5.67127C17.3381 5.5582 17.0455 5.5 16.75 5.5H12.686L13.906 6.72C14.0426 6.86152 14.1181 7.051 14.1163 7.24765C14.1145 7.4443 14.0355 7.63237 13.8964 7.77136C13.7572 7.91035 13.5691 7.98914 13.3725 7.99076C13.1758 7.99237 12.9864 7.91669 12.845 7.78L10.345 5.28C10.2045 5.13937 10.1257 4.94875 10.1257 4.75C10.1257 4.55125 10.2045 4.36063 10.345 4.22L12.845 1.72C12.9856 1.57955 13.1762 1.50066 13.375 1.50066C13.5738 1.50066 13.7644 1.57955 13.905 1.72ZM7.5 4.75C7.5 5.61195 7.15759 6.4386 6.5481 7.0481C5.9386 7.65759 5.11195 8 4.25 8C3.38805 8 2.5614 7.65759 1.9519 7.0481C1.34241 6.4386 1 5.61195 1 4.75C1 3.88805 1.34241 3.0614 1.9519 2.4519C2.5614 1.84241 3.38805 1.5 4.25 1.5C5.11195 1.5 5.9386 1.84241 6.5481 2.4519C7.15759 3.0614 7.5 3.88805 7.5 4.75ZM4.25 6.5C4.71426 6.49987 5.15946 6.31531 5.48764 5.98694C5.81583 5.65856 6.00013 5.21326 6 4.749C5.99987 4.28474 5.81531 3.83954 5.48694 3.51136C5.15856 3.18317 4.71326 2.99887 4.249 2.999C4.01912 2.99907 3.79151 3.04441 3.57915 3.13244C3.3668 3.22047 3.17386 3.34947 3.01136 3.51206C2.68317 3.84044 2.49887 4.28574 2.499 4.75C2.49913 5.21426 2.68369 5.65946 3.01206 5.98764C3.34044 6.31583 3.78574 6.50013 4.25 6.5Z" fill="#454545"/>
<path d="M10.095 22.28C9.95455 22.1394 9.87566 21.9488 9.87566 21.75C9.87566 21.5512 9.95455 21.3606 10.095 21.22L11.315 20H7.25C6.25544 20 5.30161 19.6049 4.59835 18.9017C3.89509 18.1984 3.5 17.2446 3.5 16.25V7.5C3.5 7.30109 3.57902 7.11032 3.71967 6.96967C3.86032 6.82902 4.05109 6.75 4.25 6.75C4.44891 6.75 4.63968 6.82902 4.78033 6.96967C4.92098 7.11032 5 7.30109 5 7.5V16.25C5 16.8467 5.23705 17.419 5.65901 17.841C6.08097 18.2629 6.65326 18.5 7.25 18.5H11.314L10.094 17.28C9.99763 17.1877 9.92769 17.0714 9.89143 16.943C9.85517 16.8146 9.85391 16.6789 9.88778 16.5498C9.92164 16.4208 9.98941 16.3031 10.084 16.2091C10.1787 16.1151 10.2967 16.048 10.426 16.015C10.5548 15.9814 10.6902 15.9827 10.8183 16.0187C10.9464 16.0548 11.0626 16.1242 11.155 16.22L13.655 18.72C13.7955 18.8606 13.8743 19.0512 13.8743 19.25C13.8743 19.4488 13.7955 19.6394 13.655 19.78L11.155 22.28C11.0144 22.4205 10.8238 22.4993 10.625 22.4993C10.4262 22.4993 10.2356 22.4205 10.095 22.28Z" fill="#454545"/>
</svg>
