<svg width="20" height="20" viewBox="0 0 20 20" fill="none" xmlns="http://www.w3.org/2000/svg">
<path d="M10.0013 18.0418C9.74297 18.0418 9.49297 18.0085 9.28464 17.9335C6.1013 16.8418 1.04297 12.9668 1.04297 7.24183C1.04297 4.32516 3.4013 1.9585 6.3013 1.9585C7.70964 1.9585 9.0263 2.5085 10.0013 3.49183C10.9763 2.5085 12.293 1.9585 13.7013 1.9585C16.6013 1.9585 18.9596 4.3335 18.9596 7.24183C18.9596 12.9752 13.9013 16.8418 10.718 17.9335C10.5096 18.0085 10.2596 18.0418 10.0013 18.0418ZM6.3013 3.2085C4.09297 3.2085 2.29297 5.01683 2.29297 7.24183C2.29297 12.9335 7.76797 16.1002 9.69297 16.7585C9.84297 16.8085 10.168 16.8085 10.318 16.7585C12.2346 16.1002 17.718 12.9418 17.718 7.24183C17.718 5.01683 15.918 3.2085 13.7096 3.2085C12.443 3.2085 11.268 3.80016 10.5096 4.82516C10.2763 5.14183 9.74297 5.14183 9.50963 4.82516C8.73463 3.79183 7.56797 3.2085 6.3013 3.2085Z" fill="#263141"/>
</svg>
