<svg width="24" height="27" viewBox="0 0 24 27" fill="none" xmlns="http://www.w3.org/2000/svg">
<path d="M21.8201 0.838745C21.3413 0.495765 20.7996 0.250472 20.2259 0.116877C19.6523 -0.0167185 19.0579 -0.0359987 18.4768 0.0601367C17.8957 0.156272 17.3393 0.36594 16.8392 0.677165C16.3392 0.98839 15.9053 1.39508 15.5625 1.87399L4.24647 17.6718C3.98897 18.013 3.80236 18.4022 3.69762 18.8166C3.59288 19.231 3.57213 19.6621 3.6366 20.0847C3.70107 20.5072 3.84946 20.9125 4.07301 21.2768C4.29656 21.6411 4.59076 21.957 4.93827 22.2058C5.28579 22.4547 5.67959 22.6314 6.09648 22.7257C6.51337 22.82 6.94491 22.8299 7.36569 22.7548C7.78646 22.6798 8.18795 22.5212 8.54651 22.2886C8.90507 22.056 9.21345 21.7539 9.45347 21.4002L17.4433 10.247L16.4017 9.5L8.41309 20.6558C8.1165 21.0701 7.66755 21.3496 7.16494 21.433C6.66232 21.5164 6.14717 21.3967 5.73272 21.1004C5.52744 20.9534 5.35316 20.7673 5.21984 20.5528C5.08651 20.3384 4.99676 20.0997 4.95571 19.8506C4.91466 19.6014 4.92311 19.3466 4.98059 19.1007C5.03807 18.8548 5.14344 18.6226 5.29069 18.4175L16.6041 2.61968H16.6067L16.6041 2.61712C17.1003 1.92764 17.8494 1.46286 18.6875 1.32454C19.5256 1.18622 20.3843 1.38563 21.0757 1.87912C21.7652 2.37525 22.2299 3.12438 22.3683 3.96247C22.5066 4.80056 22.3072 5.65931 21.8137 6.35068V6.34812L9.41119 23.6655C8.71785 24.6314 7.66984 25.2831 6.49685 25.4776C5.32386 25.6722 4.1216 25.3937 3.15356 24.7033C2.18778 24.0091 1.53662 22.9604 1.3428 21.7869C1.14898 20.6134 1.42832 19.411 2.11959 18.4431L11.1332 5.85868L10.0915 5.11299L1.07794 17.6974C0.637026 18.3129 0.321728 19.0092 0.150066 19.7465C-0.0215962 20.4839 -0.0462575 21.2479 0.0774922 21.9948C0.201242 22.7417 0.470976 23.4569 0.871277 24.0995C1.27158 24.7421 1.7946 25.2995 2.41044 25.7398C3.02551 26.1812 3.72155 26.4969 4.45875 26.6691C5.19594 26.8412 5.95984 26.8664 6.70677 26.7431C7.45369 26.6199 8.169 26.3506 8.81178 25.9506C9.45456 25.5507 10.0122 25.028 10.4528 24.4125L22.8553 7.09509C23.5474 6.12782 23.8268 4.92527 23.6322 3.75198C23.4375 2.57869 22.7848 1.53077 21.8175 0.838745H21.8201Z" fill="black"/>
</svg>
