<svg width="24" height="27" viewBox="0 0 24 27" fill="none" xmlns="http://www.w3.org/2000/svg">
<path d="M22.875 11.9375C22.875 19.2554 14.8717 24.1919 12.5573 25.465C12.3679 25.571 12.1545 25.6267 11.9375 25.6267C11.7205 25.6267 11.5071 25.571 11.3177 25.465C9.00333 24.1919 1 19.2554 1 11.9375C1 5.375 6.29958 1 11.9375 1C17.7708 1 22.875 5.375 22.875 11.9375Z" stroke="#454545"/>
<path d="M6.5216 13.0837L11.5631 18.1252C11.7395 18.3017 11.8285 18.3906 11.9378 18.3906C12.0472 18.3906 12.1362 18.3031 12.3126 18.1252L17.3541 13.0837C18.4449 11.9929 18.6141 10.2837 17.7581 9.00042C16.4237 7.00104 13.4501 7.10312 12.2572 9.19L12.0516 9.55167C12.0401 9.57166 12.0235 9.58826 12.0035 9.59981C11.9836 9.61136 11.9609 9.61744 11.9378 9.61744C11.9148 9.61744 11.8921 9.61136 11.8721 9.59981C11.8522 9.58826 11.8356 9.57166 11.8241 9.55167L11.6185 9.19146C10.4256 7.10312 7.45201 7.00104 6.11764 9.00188C5.2616 10.2852 5.43222 11.9929 6.5216 13.0837Z" stroke="#454545"/>
</svg>
