<svg width="23" height="26" viewBox="0 0 23 26" fill="none" xmlns="http://www.w3.org/2000/svg">
<path d="M22.4375 11.624C22.4375 18.9419 14.4342 23.8784 12.1198 25.1515C11.9304 25.2575 11.717 25.3132 11.5 25.3132C11.283 25.3132 11.0696 25.2575 10.8802 25.1515C8.56583 23.8784 0.5625 18.9419 0.5625 11.624C0.5625 5.06152 5.86208 0.686523 11.5 0.686523C17.3333 0.686523 22.4375 5.06152 22.4375 11.624Z" stroke="#454545"/>
<path d="M6.0841 12.7704L11.1256 17.8119C11.302 17.9883 11.391 18.0773 11.5003 18.0773C11.6097 18.0773 11.6987 17.9898 11.8751 17.8119L16.9166 12.7704C18.0074 11.6796 18.1766 9.9704 17.3206 8.68706C15.9862 6.68769 13.0126 6.78977 11.8197 8.87665L11.6141 9.23831C11.6026 9.2583 11.586 9.27491 11.566 9.28646C11.5461 9.298 11.5234 9.30408 11.5003 9.30408C11.4773 9.30408 11.4546 9.298 11.4346 9.28646C11.4147 9.27491 11.3981 9.2583 11.3866 9.23831L11.181 8.8781C9.98805 6.78977 7.01451 6.68769 5.68014 8.68852C4.8241 9.97185 4.99472 11.6796 6.0841 12.7704Z" stroke="#454545"/>
</svg>
