<svg width="22" height="21" viewBox="0 0 22 21" fill="none" xmlns="http://www.w3.org/2000/svg">
<path d="M4.9475 8.82674C6.5675 12.0105 9.1775 14.6092 12.3612 16.2405L14.8363 13.7655C15.14 13.4617 15.59 13.3605 15.9838 13.4955C17.2437 13.9117 18.605 14.1367 20 14.1367C20.6187 14.1367 21.125 14.643 21.125 15.2617V19.188C21.125 19.8067 20.6187 20.313 20 20.313C9.43625 20.313 0.875 11.7517 0.875 1.18799C0.875 0.569238 1.38125 0.0629883 2 0.0629883H5.9375C6.55625 0.0629883 7.0625 0.569238 7.0625 1.18799C7.0625 2.59424 7.2875 3.94424 7.70375 5.20424C7.8275 5.59799 7.7375 6.03674 7.4225 6.35174L4.9475 8.82674Z" fill="#454545"/>
</svg>
