<svg width="27" height="27" viewBox="0 0 27 27" fill="none" xmlns="http://www.w3.org/2000/svg">
<path d="M7.4475 11.0138C9.0675 14.1975 11.6775 16.7962 14.8612 18.4275L17.3363 15.9525C17.64 15.6488 18.09 15.5475 18.4838 15.6825C19.7437 16.0987 21.105 16.3238 22.5 16.3238C23.1187 16.3238 23.625 16.83 23.625 17.4488V21.375C23.625 21.9937 23.1187 22.5 22.5 22.5C11.9362 22.5 3.375 13.9388 3.375 3.375C3.375 2.75625 3.88125 2.25 4.5 2.25H8.4375C9.05625 2.25 9.5625 2.75625 9.5625 3.375C9.5625 4.78125 9.7875 6.13125 10.2037 7.39125C10.3275 7.785 10.2375 8.22375 9.9225 8.53875L7.4475 11.0138Z" fill="url(#paint0_linear_227_1021)"/>
<defs>
<linearGradient id="paint0_linear_227_1021" x1="5.20082" y1="28.7308" x2="25.858" y2="27.1576" gradientUnits="userSpaceOnUse">
<stop stop-color="#A155D3"/>
<stop offset="1" stop-color="#277FE9"/>
</linearGradient>
</defs>
</svg>
