<svg width="23" height="26" viewBox="0 0 23 26" fill="none" xmlns="http://www.w3.org/2000/svg">
<path d="M22.4375 11.6241C22.4375 18.9421 14.4342 23.8785 12.1198 25.1516C11.9304 25.2577 11.717 25.3133 11.5 25.3133C11.283 25.3133 11.0696 25.2577 10.8802 25.1516C8.56583 23.8785 0.5625 18.9421 0.5625 11.6241C0.5625 5.06165 5.86208 0.686646 11.5 0.686646C17.3333 0.686646 22.4375 5.06165 22.4375 11.6241Z" stroke="url(#paint0_linear_593_1191)"/>
<path d="M6.08019 12.7704L11.1216 17.8119C11.2981 17.9883 11.3871 18.0773 11.4964 18.0773C11.6058 18.0773 11.6948 17.9898 11.8712 17.8119L16.9127 12.7704C18.0035 11.6796 18.1727 9.9704 17.3166 8.68706C15.9823 6.68769 13.0087 6.78977 11.8158 8.87665L11.6102 9.23831C11.5987 9.2583 11.5821 9.27491 11.5621 9.28646C11.5422 9.298 11.5195 9.30408 11.4964 9.30408C11.4734 9.30408 11.4507 9.298 11.4307 9.28646C11.4108 9.27491 11.3942 9.2583 11.3827 9.23831L11.1771 8.8781C9.98415 6.78977 7.01061 6.68769 5.67623 8.68852C4.82019 9.97185 4.99081 11.6796 6.08019 12.7704Z" stroke="url(#paint1_linear_593_1191)"/>
<defs>
<linearGradient id="paint0_linear_593_1191" x1="2.53484" y1="32.8908" x2="24.8769" y2="31.3794" gradientUnits="userSpaceOnUse">
<stop stop-color="#A155D3"/>
<stop offset="1" stop-color="#277FE9"/>
</linearGradient>
<linearGradient id="paint1_linear_593_1191" x1="6.28039" y1="21.4095" x2="19.2356" y2="20.2499" gradientUnits="userSpaceOnUse">
<stop stop-color="#A155D3"/>
<stop offset="1" stop-color="#277FE9"/>
</linearGradient>
</defs>
</svg>
