<svg width="22" height="21" viewBox="0 0 22 21" fill="none" xmlns="http://www.w3.org/2000/svg">
<path d="M4.9475 8.8271C6.5675 12.0109 9.1775 14.6096 12.3612 16.2409L14.8363 13.7659C15.14 13.4621 15.59 13.3609 15.9838 13.4959C17.2437 13.9121 18.605 14.1371 20 14.1371C20.6187 14.1371 21.125 14.6434 21.125 15.2621V19.1884C21.125 19.8071 20.6187 20.3134 20 20.3134C9.43625 20.3134 0.875 11.7521 0.875 1.18835C0.875 0.569604 1.38125 0.0633545 2 0.0633545H5.9375C6.55625 0.0633545 7.0625 0.569604 7.0625 1.18835C7.0625 2.5946 7.2875 3.9446 7.70375 5.2046C7.8275 5.59835 7.7375 6.0371 7.4225 6.3521L4.9475 8.8271Z" fill="url(#paint0_linear_593_1224)"/>
<defs>
<linearGradient id="paint0_linear_593_1224" x1="2.70082" y1="26.5441" x2="23.358" y2="24.9709" gradientUnits="userSpaceOnUse">
<stop stop-color="#A155D3"/>
<stop offset="1" stop-color="#277FE9"/>
</linearGradient>
</defs>
</svg>
